<mxfile host="app.diagrams.net" agent="Mozilla/5.0 (Macintosh; Intel Mac OS X 10_15_7) AppleWebKit/537.36 (KHTML, like Gecko) Chrome/128.0.0.0 Safari/537.36" version="24.7.16">
  <diagram name="ページ1" id="Cr0Gb6fsQJUtGHRy1cIA">
    <mxGraphModel dx="1127" dy="724" grid="1" gridSize="10" guides="1" tooltips="1" connect="1" arrows="1" fold="1" page="1" pageScale="1" pageWidth="827" pageHeight="1169" math="0" shadow="0">
      <root>
        <mxCell id="0" />
        <mxCell id="1" parent="0" />
        <mxCell id="1cp1Eni4RLlDWVsxedHv-26" value="VPC" style="points=[[0,0],[0.25,0],[0.5,0],[0.75,0],[1,0],[1,0.25],[1,0.5],[1,0.75],[1,1],[0.75,1],[0.5,1],[0.25,1],[0,1],[0,0.75],[0,0.5],[0,0.25]];outlineConnect=0;gradientColor=none;html=1;whiteSpace=wrap;fontSize=12;fontStyle=0;container=1;pointerEvents=0;collapsible=0;recursiveResize=0;shape=mxgraph.aws4.group;grIcon=mxgraph.aws4.group_vpc2;strokeColor=#8C4FFF;fillColor=none;verticalAlign=top;align=left;spacingLeft=30;fontColor=#AAB7B8;dashed=0;" parent="1" vertex="1">
          <mxGeometry x="280" y="120" width="640" height="520" as="geometry" />
        </mxCell>
        <mxCell id="1cp1Eni4RLlDWVsxedHv-25" value="Availability Zone(ap-northeast-1a)" style="fillColor=none;strokeColor=#147EBA;dashed=1;verticalAlign=top;fontStyle=0;fontColor=#147EBA;whiteSpace=wrap;html=1;align=left;" parent="1cp1Eni4RLlDWVsxedHv-26" vertex="1">
          <mxGeometry x="240" y="40" width="360" height="360" as="geometry" />
        </mxCell>
        <mxCell id="1cp1Eni4RLlDWVsxedHv-24" value="" style="group" parent="1cp1Eni4RLlDWVsxedHv-26" vertex="1" connectable="0">
          <mxGeometry x="-74" y="191" width="150" height="108" as="geometry" />
        </mxCell>
        <mxCell id="1cp1Eni4RLlDWVsxedHv-15" value="" style="sketch=0;outlineConnect=0;fontColor=#232F3E;gradientColor=none;fillColor=#8C4FFF;strokeColor=none;dashed=0;verticalLabelPosition=bottom;verticalAlign=top;align=center;html=1;fontSize=12;fontStyle=0;aspect=fixed;pointerEvents=1;shape=mxgraph.aws4.internet_gateway;" parent="1cp1Eni4RLlDWVsxedHv-24" vertex="1">
          <mxGeometry x="36" width="78" height="78" as="geometry" />
        </mxCell>
        <mxCell id="1cp1Eni4RLlDWVsxedHv-23" value="&lt;font style=&quot;font-size: 18px;&quot;&gt;Internet Gateway&lt;/font&gt;" style="text;strokeColor=none;align=center;fillColor=none;html=1;verticalAlign=middle;whiteSpace=wrap;rounded=0;" parent="1cp1Eni4RLlDWVsxedHv-24" vertex="1">
          <mxGeometry y="78" width="150" height="30" as="geometry" />
        </mxCell>
        <mxCell id="1cp1Eni4RLlDWVsxedHv-35" value="" style="edgeStyle=orthogonalEdgeStyle;html=1;endArrow=block;elbow=vertical;startArrow=none;endFill=1;strokeColor=#545B64;rounded=0;" parent="1cp1Eni4RLlDWVsxedHv-26" target="cwOfR8ABcjBu6lYcxgcY-1" edge="1">
          <mxGeometry width="100" relative="1" as="geometry">
            <mxPoint x="40" y="230" as="sourcePoint" />
            <mxPoint x="208" y="230" as="targetPoint" />
          </mxGeometry>
        </mxCell>
        <mxCell id="cwOfR8ABcjBu6lYcxgcY-1" value="" style="sketch=0;outlineConnect=0;fontColor=#232F3E;gradientColor=none;fillColor=#E7157B;strokeColor=none;dashed=0;verticalLabelPosition=bottom;verticalAlign=top;align=center;html=1;fontSize=12;fontStyle=0;aspect=fixed;pointerEvents=1;shape=mxgraph.aws4.systems_manager_session_manager;" vertex="1" parent="1cp1Eni4RLlDWVsxedHv-26">
          <mxGeometry x="90" y="192" width="78" height="78" as="geometry" />
        </mxCell>
        <mxCell id="cwOfR8ABcjBu6lYcxgcY-3" value="&lt;font style=&quot;font-size: 18px;&quot;&gt;Session Manager&lt;/font&gt;" style="text;strokeColor=none;align=center;fillColor=none;html=1;verticalAlign=middle;whiteSpace=wrap;rounded=0;" vertex="1" parent="1cp1Eni4RLlDWVsxedHv-26">
          <mxGeometry x="79" y="270" width="151" height="30" as="geometry" />
        </mxCell>
        <mxCell id="cwOfR8ABcjBu6lYcxgcY-9" value="" style="group" vertex="1" connectable="0" parent="1cp1Eni4RLlDWVsxedHv-26">
          <mxGeometry x="359" y="440" width="170" height="80" as="geometry" />
        </mxCell>
        <mxCell id="cwOfR8ABcjBu6lYcxgcY-4" value="" style="sketch=0;outlineConnect=0;fontColor=#232F3E;gradientColor=none;fillColor=#DD344C;strokeColor=none;dashed=0;verticalLabelPosition=bottom;verticalAlign=top;align=center;html=1;fontSize=12;fontStyle=0;aspect=fixed;pointerEvents=1;shape=mxgraph.aws4.role;" vertex="1" parent="cwOfR8ABcjBu6lYcxgcY-9">
          <mxGeometry x="40" width="78" height="44" as="geometry" />
        </mxCell>
        <mxCell id="cwOfR8ABcjBu6lYcxgcY-5" value="&lt;font style=&quot;font-size: 18px;&quot;&gt;IAM Role for SSM&amp;nbsp;&lt;/font&gt;" style="text;strokeColor=none;align=center;fillColor=none;html=1;verticalAlign=middle;whiteSpace=wrap;rounded=0;" vertex="1" parent="cwOfR8ABcjBu6lYcxgcY-9">
          <mxGeometry y="50" width="170" height="30" as="geometry" />
        </mxCell>
        <mxCell id="1cp1Eni4RLlDWVsxedHv-16" value="Public subnet" style="points=[[0,0],[0.25,0],[0.5,0],[0.75,0],[1,0],[1,0.25],[1,0.5],[1,0.75],[1,1],[0.75,1],[0.5,1],[0.25,1],[0,1],[0,0.75],[0,0.5],[0,0.25]];outlineConnect=0;gradientColor=none;html=1;whiteSpace=wrap;fontSize=12;fontStyle=0;container=1;pointerEvents=0;collapsible=0;recursiveResize=0;shape=mxgraph.aws4.group;grIcon=mxgraph.aws4.group_security_group;grStroke=0;strokeColor=#7AA116;fillColor=#F2F6E8;verticalAlign=top;align=left;spacingLeft=30;fontColor=#248814;dashed=0;" parent="1" vertex="1">
          <mxGeometry x="599" y="240" width="240" height="240" as="geometry" />
        </mxCell>
        <mxCell id="1cp1Eni4RLlDWVsxedHv-27" value="" style="sketch=0;outlineConnect=0;fontColor=#232F3E;gradientColor=none;fillColor=#232F3D;strokeColor=none;dashed=0;verticalLabelPosition=bottom;verticalAlign=top;align=center;html=1;fontSize=12;fontStyle=0;aspect=fixed;pointerEvents=1;shape=mxgraph.aws4.user;" parent="1" vertex="1">
          <mxGeometry x="80" y="311" width="78" height="78" as="geometry" />
        </mxCell>
        <mxCell id="1cp1Eni4RLlDWVsxedHv-28" value="" style="edgeStyle=orthogonalEdgeStyle;html=1;endArrow=block;elbow=vertical;startArrow=none;endFill=1;strokeColor=#545B64;rounded=0;" parent="1" source="1cp1Eni4RLlDWVsxedHv-27" target="1cp1Eni4RLlDWVsxedHv-15" edge="1">
          <mxGeometry width="100" relative="1" as="geometry">
            <mxPoint x="158" y="348.84" as="sourcePoint" />
            <mxPoint x="320" y="350" as="targetPoint" />
          </mxGeometry>
        </mxCell>
        <mxCell id="1cp1Eni4RLlDWVsxedHv-30" value="&lt;font style=&quot;font-size: 14px;&quot;&gt;ssh&lt;/font&gt;" style="text;strokeColor=none;align=center;fillColor=none;html=1;verticalAlign=middle;whiteSpace=wrap;rounded=0;" parent="1" vertex="1">
          <mxGeometry x="158" y="320" width="60" height="30" as="geometry" />
        </mxCell>
        <mxCell id="1cp1Eni4RLlDWVsxedHv-18" value="" style="group" parent="1" vertex="1" connectable="0">
          <mxGeometry x="639" y="311" width="160" height="120" as="geometry" />
        </mxCell>
        <mxCell id="1cp1Eni4RLlDWVsxedHv-11" value="&lt;font style=&quot;font-size: 18px;&quot;&gt;EC2&lt;/font&gt;&lt;div&gt;(apache + wp + MySQL)&lt;/div&gt;" style="text;strokeColor=none;align=center;fillColor=none;html=1;verticalAlign=middle;whiteSpace=wrap;rounded=0;" parent="1cp1Eni4RLlDWVsxedHv-18" vertex="1">
          <mxGeometry y="80" width="160" height="40" as="geometry" />
        </mxCell>
        <mxCell id="1cp1Eni4RLlDWVsxedHv-9" value="" style="sketch=0;points=[[0,0,0],[0.25,0,0],[0.5,0,0],[0.75,0,0],[1,0,0],[0,1,0],[0.25,1,0],[0.5,1,0],[0.75,1,0],[1,1,0],[0,0.25,0],[0,0.5,0],[0,0.75,0],[1,0.25,0],[1,0.5,0],[1,0.75,0]];outlineConnect=0;fontColor=#232F3E;fillColor=#ED7100;strokeColor=#ffffff;dashed=0;verticalLabelPosition=bottom;verticalAlign=top;align=center;html=1;fontSize=12;fontStyle=0;aspect=fixed;shape=mxgraph.aws4.resourceIcon;resIcon=mxgraph.aws4.ec2;" parent="1cp1Eni4RLlDWVsxedHv-18" vertex="1">
          <mxGeometry x="40" width="80" height="80" as="geometry" />
        </mxCell>
        <mxCell id="cwOfR8ABcjBu6lYcxgcY-2" value="" style="edgeStyle=orthogonalEdgeStyle;html=1;endArrow=block;elbow=vertical;startArrow=none;endFill=1;strokeColor=#545B64;rounded=0;entryX=0;entryY=0.5;entryDx=0;entryDy=0;entryPerimeter=0;" edge="1" parent="1" source="cwOfR8ABcjBu6lYcxgcY-1" target="1cp1Eni4RLlDWVsxedHv-9">
          <mxGeometry width="100" relative="1" as="geometry">
            <mxPoint x="540" y="350" as="sourcePoint" />
            <mxPoint x="580" y="350" as="targetPoint" />
          </mxGeometry>
        </mxCell>
        <mxCell id="cwOfR8ABcjBu6lYcxgcY-8" value="" style="edgeStyle=orthogonalEdgeStyle;html=1;endArrow=block;elbow=vertical;startArrow=none;endFill=1;strokeColor=#545B64;rounded=0;" edge="1" parent="1" source="cwOfR8ABcjBu6lYcxgcY-4" target="1cp1Eni4RLlDWVsxedHv-11">
          <mxGeometry width="100" relative="1" as="geometry">
            <mxPoint x="720" y="550" as="sourcePoint" />
            <mxPoint x="820" y="550" as="targetPoint" />
          </mxGeometry>
        </mxCell>
      </root>
    </mxGraphModel>
  </diagram>
</mxfile>
